<svg id="Group_47" data-name="Group 47" xmlns="http://www.w3.org/2000/svg" width="110.333" height="110.333" viewBox="0 0 110.333 110.333">
  <path id="Path_39" data-name="Path 39" d="M0,0H110.333V110.333H0Z" fill="none"/>
  <path id="Path_40" data-name="Path 40" d="M92.944,33.177a9.194,9.194,0,0,1,9.194,9.194V60.76a9.194,9.194,0,0,1-9.194,9.194H88.062a36.782,36.782,0,0,1-36.493,32.181V92.941A27.583,27.583,0,0,0,79.153,65.357V37.774a27.583,27.583,0,0,0-55.167,0V69.954H10.194A9.194,9.194,0,0,1,1,60.76V42.371a9.194,9.194,0,0,1,9.194-9.194h4.882a36.782,36.782,0,0,1,72.985,0ZM32.077,68.966l4.873-7.8a27.609,27.609,0,0,0,29.238,0l4.873,7.8a36.8,36.8,0,0,1-38.984,0Z" transform="translate(3.597 3.601)" fill="red"/>
</svg>
